
<svg version="1.0" xmlns="http://www.w3.org/2000/svg"
 width="512.000000pt" height="512.000000pt" viewBox="0 0 512.000000 512.000000"
 preserveAspectRatio="xMidYMid meet">

<g transform="translate(0.000000,512.000000) scale(0.100000,-0.100000)"
fill="#808191" stroke="none">
<path d="M2380 4954 c-160 -18 -230 -29 -330 -51 -900 -197 -1601 -880 -1820
-1775 -52 -211 -64 -322 -64 -568 0 -304 35 -520 129 -789 297 -850 1019
-1445 1927 -1587 157 -25 518 -25 675 -1 527 83 993 317 1358 682 373 373 613
860 687 1395 19 141 16 497 -6 638 -73 470 -258 877 -559 1228 -374 437 -883
716 -1474 809 -93 15 -448 28 -523 19z m510 -179 c885 -135 1610 -785 1834
-1645 56 -214 71 -335 70 -575 0 -235 -13 -340 -69 -561 -95 -370 -284 -707
-554 -987 -272 -282 -605 -485 -970 -592 -242 -71 -379 -90 -646 -89 -249 1
-374 17 -598 78 -746 206 -1347 807 -1553 1553 -62 226 -78 349 -78 598 -1
262 18 400 86 635 216 750 839 1352 1596 1539 105 27 259 54 367 65 83 9 414
-4 515 -19z"/>
<path d="M2395 4633 c-40 -6 -75 -40 -75 -74 0 -74 31 -88 173 -80 98 5 111 8
128 30 26 32 24 77 -6 106 -22 23 -31 25 -107 24 -46 -1 -96 -4 -113 -6z"/>
<path d="M1910 4535 c-707 -235 -1239 -830 -1385 -1550 -27 -132 -45 -292 -45
-392 0 -55 4 -67 25 -88 31 -32 78 -33 109 -2 20 20 23 35 29 147 25 486 220
926 561 1266 238 237 496 389 829 489 49 15 96 36 107 48 45 47 5 127 -62 127
-18 -1 -94 -21 -168 -45z"/>
<path d="M2466 3990 c-63 -16 -153 -70 -197 -117 -22 -24 -55 -74 -72 -111
-29 -61 -32 -76 -32 -163 0 -90 2 -99 37 -171 45 -91 103 -147 196 -191 61
-29 76 -32 162 -32 86 0 101 3 162 32 93 44 151 100 196 191 35 72 37 81 37
172 0 91 -2 100 -37 172 -68 136 -188 217 -336 224 -42 2 -94 -1 -116 -6z
m168 -162 c86 -26 166 -136 166 -228 0 -124 -116 -240 -240 -240 -124 0 -240
116 -240 240 0 63 23 114 75 165 70 71 145 90 239 63z"/>
<path d="M2085 3031 c-91 -23 -173 -90 -215 -176 -20 -41 -24 -65 -24 -135 0
-93 17 -143 73 -211 37 -44 131 -95 193 -104 l47 -7 3 -567 3 -566 32 -67 c44
-93 100 -151 191 -196 71 -35 82 -37 166 -37 118 1 184 26 266 102 66 60 112
142 130 226 7 37 10 272 8 748 l-3 694 -32 67 c-44 93 -100 151 -191 196 l-76
37 -270 2 c-149 1 -284 -2 -301 -6z m549 -163 c26 -8 60 -31 91 -63 32 -31 55
-65 63 -91 15 -52 17 -1350 2 -1404 -52 -186 -268 -250 -398 -117 -74 75 -72
57 -72 724 l0 594 -25 24 c-21 22 -33 25 -95 25 -83 0 -126 16 -163 59 -66 79
-36 206 58 247 41 18 479 19 539 2z"/>
</g>
</svg>
