<?xml version="1.0" standalone="no"?>
<!DOCTYPE svg PUBLIC "-//W3C//DTD SVG 20010904//EN"
 "http://www.w3.org/TR/2001/REC-SVG-20010904/DTD/svg10.dtd">
<svg version="1.0" xmlns="http://www.w3.org/2000/svg"
 width="512.000000pt" height="512.000000pt" viewBox="0 0 512.000000 512.000000"
 preserveAspectRatio="xMidYMid meet">

<g transform="translate(0.000000,512.000000) scale(0.100000,-0.100000)"
fill="#808191" stroke="none">
<path d="M2416 4960 c-435 -55 -818 -327 -1006 -715 -268 -551 -107 -1217 383
-1586 63 -47 75 -60 60 -65 -69 -24 -223 -94 -298 -136 -504 -283 -870 -756
-1009 -1306 -58 -228 -82 -507 -53 -619 48 -183 193 -326 369 -362 37 -8 318
-11 905 -9 842 3 852 3 879 24 53 39 69 71 69 134 0 63 -16 95 -69 134 -27 21
-38 21 -886 26 -848 5 -859 5 -886 26 -72 53 -85 113 -65 301 31 291 123 553
279 793 162 250 395 460 662 599 259 134 462 185 805 201 139 7 218 16 295 34
498 114 862 492 976 1011 24 110 24 369 0 480 -57 262 -174 483 -351 661 -184
185 -409 306 -668 359 -95 19 -297 27 -391 15z m375 -349 c175 -45 317 -127
445 -255 130 -129 209 -269 256 -449 32 -121 32 -339 0 -457 -50 -185 -123
-310 -257 -445 -177 -177 -375 -266 -621 -282 -405 -25 -793 221 -943 598 -53
133 -65 199 -65 359 0 153 17 246 66 365 63 149 197 320 322 409 115 82 260
145 401 172 96 19 296 11 396 -15z"/>
<path d="M3695 2226 c-37 -17 -70 -52 -84 -89 -7 -18 -11 -138 -11 -322 l0
-294 -309 -3 c-295 -3 -311 -4 -337 -24 -53 -39 -69 -71 -69 -134 0 -63 16
-95 69 -134 26 -20 42 -21 336 -24 l309 -3 3 -309 c3 -294 4 -310 24 -336 39
-53 71 -69 134 -69 63 0 95 16 134 69 20 26 21 42 24 336 l3 309 309 3 c294 3
310 4 336 24 53 39 69 71 69 134 0 63 -16 95 -69 134 -26 20 -42 21 -336 24
l-309 3 -3 309 c-3 294 -4 310 -24 336 -11 15 -32 37 -46 47 -34 25 -113 32
-153 13z"/>
</g>
</svg>
