<?xml version="1.0" standalone="no"?>
<!DOCTYPE svg PUBLIC "-//W3C//DTD SVG 20010904//EN"
 "http://www.w3.org/TR/2001/REC-SVG-20010904/DTD/svg10.dtd">
<svg version="1.0" xmlns="http://www.w3.org/2000/svg"
 width="512.000000pt" height="512.000000pt" viewBox="0 0 512.000000 512.000000"
 preserveAspectRatio="xMidYMid meet">

<g transform="translate(0.000000,512.000000) scale(0.100000,-0.100000)"
fill="#808191" stroke="none">
<path d="M1180 4059 c-46 -18 -92 -61 -111 -103 -23 -50 -24 -134 -4 -184 11
-26 196 -218 603 -624 l587 -588 -591 -592 c-645 -647 -620 -617 -612 -729 10
-142 160 -230 296 -174 26 11 218 196 624 603 l588 587 592 -591 c647 -645
617 -620 729 -612 142 10 230 160 174 296 -11 26 -196 218 -603 625 l-587 587
587 588 c407 406 592 598 603 624 56 136 -32 286 -174 296 -112 8 -82 33 -729
-612 l-592 -591 -588 587 c-406 407 -598 592 -624 603 -42 17 -130 19 -168 4z"/>
</g>
</svg>
