<svg xmlns="http://www.w3.org/2000/svg" width="682.667" height="682.667" version="1.0" viewBox="0 0 512 512"><path fill="#808191" d="M118 106.1c-4.6 1.8-9.2 6.1-11.1 10.3-2.3 5-2.4 13.4-.4 18.4 1.1 2.6 19.6 21.8 60.3 62.4l58.7 58.8-59.1 59.2c-64.5 64.7-62 61.7-61.2 72.9 1 14.2 16 23 29.6 17.4 2.6-1.1 21.8-19.6 62.4-60.3l58.8-58.7 59.2 59.1c64.7 64.5 61.7 62 72.9 61.2 14.2-1 23-16 17.4-29.6-1.1-2.6-19.6-21.8-60.3-62.5L286.5 256l58.7-58.8c40.7-40.6 59.2-59.8 60.3-62.4 5.6-13.6-3.2-28.6-17.4-29.6-11.2-.8-8.2-3.3-72.9 61.2L256 225.5l-58.8-58.7c-40.6-40.7-59.8-59.2-62.4-60.3-4.2-1.7-13-1.9-16.8-.4z"/></svg>