<?xml version="1.0" standalone="no"?>
<!DOCTYPE svg PUBLIC "-//W3C//DTD SVG 20010904//EN"
 "http://www.w3.org/TR/2001/REC-SVG-20010904/DTD/svg10.dtd">
<svg version="1.0" xmlns="http://www.w3.org/2000/svg"
 width="512.000000pt" height="512.000000pt" viewBox="0 0 512.000000 512.000000"
 preserveAspectRatio="xMidYMid meet">

<g transform="translate(0.000000,512.000000) scale(0.100000,-0.100000)"
fill="#808191" stroke="none">
<path d="M662 4945 c-286 -62 -502 -331 -502 -625 0 -348 292 -640 640 -640
236 0 468 143 569 352 94 194 94 382 0 576 -124 256 -423 398 -707 337z m273
-336 c63 -30 123 -90 155 -154 35 -71 35 -197 0 -270 -31 -64 -91 -124 -155
-155 -73 -35 -199 -35 -270 0 -64 31 -124 91 -155 155 -20 41 -25 65 -24 135
0 72 4 93 26 136 15 28 38 64 52 81 27 32 112 82 160 94 55 14 157 4 211 -22z"/>
<path d="M2260 4944 c-234 -50 -436 -254 -485 -489 -60 -285 79 -577 336 -703
151 -74 102 -72 1249 -72 1147 0 1100 -2 1250 71 208 103 350 333 350 569 0
236 -142 466 -350 569 -150 73 -103 71 -1255 70 -842 0 -1042 -3 -1095 -15z
m2190 -332 c72 -35 114 -75 151 -144 31 -58 34 -70 34 -148 0 -78 -3 -90 -34
-148 -38 -70 -69 -100 -145 -140 l-51 -27 -1045 0 -1045 0 -63 34 c-69 38
-110 80 -144 151 -32 66 -31 196 2 265 42 86 125 154 215 176 17 4 491 6 1055
6 l1025 -2 45 -23z"/>
<path d="M660 3184 c-234 -50 -436 -254 -485 -489 -60 -285 79 -577 336 -703
151 -74 102 -72 1249 -72 1147 0 1100 -2 1250 71 208 103 350 333 350 569 0
236 -142 466 -350 569 -150 73 -103 71 -1255 70 -842 0 -1042 -3 -1095 -15z
m2190 -332 c72 -35 114 -75 151 -144 31 -58 34 -70 34 -148 0 -78 -3 -90 -34
-148 -38 -70 -69 -100 -145 -140 l-51 -27 -1045 0 -1045 0 -63 34 c-69 38
-110 80 -144 151 -32 66 -31 196 2 265 42 86 125 154 215 176 17 4 491 6 1055
6 l1025 -2 45 -23z"/>
<path d="M4180 3185 c-176 -38 -351 -175 -429 -337 -94 -194 -94 -382 0 -576
101 -210 331 -352 569 -352 237 0 461 139 568 350 95 190 96 389 0 580 -128
257 -422 396 -708 335z m275 -336 c63 -30 123 -90 155 -154 20 -41 25 -65 25
-135 -1 -77 -4 -91 -34 -148 -38 -70 -70 -101 -145 -140 -43 -22 -64 -26 -136
-26 -70 -1 -94 4 -135 24 -260 128 -238 495 35 594 63 23 170 16 235 -15z"/>
<path d="M662 1425 c-286 -62 -502 -331 -502 -625 0 -236 140 -463 350 -568
255 -127 538 -82 741 118 251 249 251 649 0 901 -156 155 -376 220 -589 174z
m273 -336 c63 -30 123 -90 155 -154 35 -71 35 -197 0 -270 -31 -64 -91 -124
-155 -155 -73 -35 -199 -35 -270 0 -64 31 -124 91 -155 155 -20 41 -25 65 -24
135 0 72 4 93 26 136 15 28 38 64 52 81 27 32 112 82 160 94 55 14 157 4 211
-22z"/>
<path d="M2260 1424 c-234 -50 -436 -254 -485 -489 -60 -285 79 -577 336 -703
151 -74 102 -72 1249 -72 1147 0 1100 -2 1250 71 208 103 350 333 350 569 0
236 -142 466 -350 569 -150 73 -103 71 -1255 70 -842 0 -1042 -3 -1095 -15z
m2190 -332 c72 -35 114 -75 151 -144 31 -58 34 -70 34 -148 0 -78 -3 -90 -34
-148 -38 -70 -69 -100 -145 -140 l-51 -27 -1045 0 -1045 0 -63 34 c-69 38
-110 80 -144 151 -32 66 -31 196 2 265 42 86 125 154 215 176 17 4 491 6 1055
6 l1025 -2 45 -23z"/>
</g>
</svg>