<svg xmlns="http://www.w3.org/2000/svg" width="682.667" height="682.667" version="1.0" viewBox="0 0 512 512"><path fill="#808191" d="M145.6 78c-10.7 3.3-18.5 15.2-17.3 26.5.9 8.9 6.1 16.5 14.2 20.8l4 2.2h347l4-2.2c9.2-4.9 13.9-12.7 14-22.8 0-10.2-4.8-18.3-13.8-23.2-3-1.7-12.9-1.8-176.2-2-95.2-.1-174.3.2-175.9.7zM20 231.1c-9 1.8-18.2 11.3-19.6 20.4-1 6.7.3 12.9 3.9 18.2 4.2 6.2 9.9 10.1 16.7 11.3 3.7.7 84.3.9 238.5.8 211-.3 233.3-.5 236.5-1.9 5.2-2.4 9.7-6.5 12.8-11.8 2.3-3.9 2.7-5.7 2.7-12.1s-.4-8.2-2.7-12.1c-3.1-5.3-7.6-9.4-12.8-11.8-3.2-1.5-25.4-1.6-237.5-1.7-132.5-.1-236 .2-238.5.7zm227.9 154.3c-22.2 7.9-23.4 37.8-1.9 47.5 4.4 2 5.9 2.1 124.6 2.1 133.7 0 125.6.4 133.2-6.9 5.7-5.6 7.7-10.4 7.7-18.6-.1-5.2-.6-8.1-2.2-11.1-3.1-5.8-10.4-11.9-15.8-13.3-6.8-1.7-240.7-1.5-245.6.3z"/></svg>