<?xml version="1.0" standalone="no"?>
<!DOCTYPE svg PUBLIC "-//W3C//DTD SVG 20010904//EN"
 "http://www.w3.org/TR/2001/REC-SVG-20010904/DTD/svg10.dtd">
<svg version="1.0" xmlns="http://www.w3.org/2000/svg"
 width="512.000000pt" height="512.000000pt" viewBox="0 0 512.000000 512.000000"
 preserveAspectRatio="xMidYMid meet">

<g transform="translate(0.000000,512.000000) scale(0.100000,-0.100000)"
fill="#808191" stroke="none">
<path d="M1456 4340 c-107 -33 -185 -152 -173 -265 9 -89 61 -165 142 -208
l40 -22 1735 0 1735 0 40 22 c92 49 139 127 140 228 0 102 -48 183 -138 232
-30 17 -129 18 -1762 20 -952 1 -1743 -2 -1759 -7z"/>
<path d="M200 2809 c-90 -18 -182 -113 -196 -204 -10 -67 3 -129 39 -182 42
-62 99 -101 167 -113 37 -7 843 -9 2385 -8 2110 3 2333 5 2365 19 52 24 97 65
128 118 23 39 27 57 27 121 0 64 -4 82 -27 121 -31 53 -76 94 -128 118 -32 15
-254 16 -2375 17 -1325 1 -2360 -2 -2385 -7z"/>
<path d="M2479 1266 c-222 -79 -234 -378 -19 -475 44 -20 59 -21 1246 -21
1337 0 1256 -4 1332 69 57 56 77 104 77 186 -1 52 -6 81 -22 111 -31 58 -104
119 -158 133 -68 17 -2407 15 -2456 -3z"/>
</g>
</svg>
