<svg xmlns="http://www.w3.org/2000/svg" width="682.667" height="682.667" version="1.0" viewBox="0 0 512 512">
    <path fill="#808191"
        d="M365 21.5c-29.2 6.5-50.7 26.9-58.6 55.6-2.7 9.8-2.4 30.1.5 39.4 1.2 3.8 2.3 7.8 2.4 8.8.2 1.4-14.2 11.2-60.1 40.8l-60.3 39-5-4.5c-14.2-12.8-28.9-19-47.9-20.3-27.2-1.7-55.1 12.9-68.9 36-26.3 44.3-3.9 99.6 46 113.3 8.8 2.5 28.9 2.5 37.9 0 10-2.7 21.7-8.9 30.3-16.1l7.7-6.5 60.3 38.9c45.8 29.6 60.2 39.4 60 40.8-.1 1-1.2 4.9-2.4 8.8-2.9 9.3-3.2 29.6-.5 39.5 7.1 26.3 28.4 47.6 54.6 54.6 8.9 2.5 29.1 2.5 38 0 26.2-7 47.6-28.4 54.6-54.6 2.5-8.9 2.5-29.1 0-38-7-26.3-28.4-47.6-54.6-54.6-9.1-2.5-29.1-2.5-38-.1-10 2.8-21.7 9-30.3 16.2L323 365l-60.6-39.1c-46.3-30-60.4-39.6-60-40.8 4.6-13.9 4.9-15.8 4.9-29.1 0-11.2-.4-14.7-2.2-20.5-1.2-3.9-2.3-7.8-2.4-8.8-.2-1.4 14.6-11.4 60.1-40.8L323 147l7.1 5.9c8.7 7.3 20.3 13.5 30.6 16.2 9.9 2.7 26.7 2.9 36.5.6 27.4-6.6 49.2-28.3 56.3-56.2 2.5-9.7 2.4-26.4-.3-36.6-6.9-26.2-27.9-47.3-53.7-54.3-8.6-2.4-26.4-2.9-34.5-1.1zm26.9 24c18.7 4.4 34.2 19.9 38.6 38.6 8.8 37.3-25.1 71.2-62.4 62.4-18.7-4.4-34.2-19.9-38.6-38.6-8.8-37.3 25.1-71.2 62.4-62.4zm-248 160c18.7 4.4 34.2 19.9 38.6 38.6 8.7 37.3-25.1 71.1-62.4 62.4-18.7-4.4-34.2-19.9-38.6-38.6-8.8-37.3 25.1-71.2 62.4-62.4zm248 160c18.7 4.4 34.2 19.9 38.6 38.6 6.5 27.6-11 55.8-38.6 62.4-37.3 8.8-71.2-25.1-62.4-62.4 6.6-27.6 34.8-45.1 62.4-38.6z" />
</svg>