<?xml version="1.0" standalone="no"?>
<!DOCTYPE svg PUBLIC "-//W3C//DTD SVG 20010904//EN"
 "http://www.w3.org/TR/2001/REC-SVG-20010904/DTD/svg10.dtd">
<svg version="1.0" xmlns="http://www.w3.org/2000/svg"
 width="512.000000pt" height="512.000000pt" viewBox="0 0 512.000000 512.000000"
 preserveAspectRatio="xMidYMid meet">

<g transform="translate(0.000000,512.000000) scale(0.100000,-0.100000)"
fill="#808191" stroke="none">
<path d="M3650 4905 c-292 -65 -507 -269 -586 -556 -27 -98 -24 -301 5 -394
12 -38 23 -78 24 -88 2 -14 -142 -112 -601 -408 l-603 -390 -50 45 c-142 128
-289 190 -479 203 -272 17 -551 -129 -689 -360 -263 -443 -39 -996 460 -1133
88 -25 289 -25 379 0 100 27 217 89 303 161 l77 65 603 -389 c458 -296 602
-394 600 -408 -1 -10 -12 -49 -24 -88 -29 -93 -32 -296 -5 -395 71 -263 284
-476 546 -546 89 -25 291 -25 380 0 262 70 476 284 546 546 25 89 25 291 0
380 -70 263 -284 476 -546 546 -91 25 -291 25 -380 1 -100 -28 -217 -90 -303
-162 l-77 -65 -606 391 c-463 300 -604 396 -600 408 46 139 49 158 49 291 0
112 -4 147 -22 205 -12 39 -23 78 -24 88 -2 14 146 114 601 408 l602 389 71
-59 c87 -73 203 -135 306 -162 99 -27 267 -29 365 -6 274 66 492 283 563 562
25 97 24 264 -3 366 -69 262 -279 473 -537 543 -86 24 -264 29 -345 11z m269
-240 c187 -44 342 -199 386 -386 88 -373 -251 -712 -624 -624 -187 44 -342
199 -386 386 -88 373 251 712 624 624z m-2480 -1600 c187 -44 342 -199 386
-386 87 -373 -251 -711 -624 -624 -187 44 -342 199 -386 386 -88 373 251 712
624 624z m2480 -1600 c187 -44 342 -199 386 -386 65 -276 -110 -558 -386 -624
-373 -88 -712 251 -624 624 66 276 348 451 624 386z"/>
</g>
</svg>
