<svg xmlns="http://www.w3.org/2000/svg" width="24" height="24" fill="none"><path fill="#808191" d="M12 18.546a6.545 6.545 0 1 1 0-13.091 6.545 6.545 0 0 1 0 13.09Zm0-2.182a4.364 4.364 0 1 0 0-8.728 4.364 4.364 0 0 0 0 8.728ZM10.91 1.09a1.09 1.09 0 1 1 2.18 0v1.09a1.09 1.09 0 1 1-2.18 0v-1.09Zm0 20.727a1.09 1.09 0 1 1 2.18 0v1.091a1.09 1.09 0 1 1-2.18 0v-1.09ZM3.514 5.058a1.09 1.09 0 0 1 1.542-1.543l.772.771A1.09 1.09 0 0 1 4.286 5.83l-.771-.772ZM18.17 19.713a1.09 1.09 0 1 1 1.543-1.543l.771.771a1.09 1.09 0 1 1-1.543 1.543l-.77-.771Zm.771-16.2a1.091 1.091 0 1 1 1.543 1.543l-.771.772a1.09 1.09 0 0 1-1.543-1.543l.771-.771ZM4.286 18.172a1.09 1.09 0 1 1 1.543 1.543l-.772.771a1.09 1.09 0 1 1-1.542-1.543l.771-.77ZM22.91 10.91a1.09 1.09 0 1 1 0 2.182h-1.09a1.09 1.09 0 1 1 0-2.182h1.09Zm-20.727 0a1.09 1.09 0 1 1 0 2.182H1.09a1.09 1.09 0 1 1 0-2.182h1.09Z"/></svg>